name C:\Users\u0101727\Documents\MyRepositories\upper-imu-dc\Results\main_tracking\Case_28\kinematics.mot
datacolumns 43
datarows 5
range 1.84000000 1.88000000
endheader 
time	clav_prot	clav_elev	scapula_abduction	scapula_elevation	scapula_upward_rot	scapula_winging	plane_elv	shoulder_elv	axial_rot	TrapeziusScapula_M/activation	TrapeziusScapula_S/activation	TrapeziusScapula_I/activation	TrapeziusClavicle_S/activation	SerratusAnterior_I/activation	SerratusAnterior_M/activation	SerratusAnterior_S/activation	Rhomboideus_S/activation	Rhomboideus_I/activation	LevatorScapulae/activation	Coracobrachialis/activation	DeltoideusClavicle_A/activation	DeltoideusScapula_P/activation	DeltoideusScapula_M/activation	LatissimusDorsi_S/activation	LatissimusDorsi_M/activation	LatissimusDorsi_I/activation	PectoralisMajorClavicle_S/activation	PectoralisMajorThorax_I/activation	PectoralisMajorThorax_M/activation	TeresMajor/activation	Infraspinatus_I/activation	Infraspinatus_S/activation	PectoralisMinor/activation	TeresMinor/activation	Subscapularis_S/activation	Subscapularis_M/activation	Subscapularis_I/activation	Supraspinatus_P/activation	Supraspinatus_A/activation	TRIlong/activation	BIC_long/activation	BIC_brevis/activation	
          1.84000000	        -27.48773648	          6.47727984	          1.21114211	         -2.83281487	         48.03494256	         -5.40208559	         69.71919886	         67.09530339	        -20.15059690	          0.01010076	          0.01010153	          0.01009968	          0.01010119	          0.01010158	          0.01010189	          0.01010350	          0.01010206	          0.01010226	          0.01010292	          0.01010163	          0.01010238	          0.01010210	          0.01010219	          0.01010266	          0.01010302	          0.01010320	          0.01010301	          0.01010426	          0.01010354	          0.01010203	          0.01010026	          0.01186646	          0.01010152	          0.01010075	          0.01010302	          0.01010210	          0.01010289	          0.01010280	          0.01010262	          0.01010194	          0.01010277	          0.01010251	
          1.85000000	        -27.73665065	          6.66047466	          1.11336809	         -2.76269121	         48.51330735	         -5.54031616	         69.71513424	         67.41724377	        -19.69825474	          0.01010055	          0.01010101	          0.01010040	          0.01010127	          0.01010192	          0.01010199	          0.01010340	          0.01010182	          0.01010205	          0.01010269	          0.01010163	          0.01010242	          0.01010209	          0.01010222	          0.01010274	          0.01010301	          0.01010312	          0.01010293	          0.01010411	          0.01010343	          0.01010209	          0.01010029	          0.01027379	          0.01010222	          0.01010065	          0.01010282	          0.01010209	          0.01010284	          0.01010276	          0.01010256	          0.01010191	          0.01010278	          0.01010249	
          1.86000000	        -27.95721983	          6.84082984	          1.03942533	         -2.68881784	         48.95850953	         -5.66922915	         69.67664486	         67.74374436	        -19.31355930	          0.01010052	          0.01010100	          0.01010116	          0.01010147	          0.01010220	          0.01010209	          0.01010314	          0.01010166	          0.01010185	          0.01010240	          0.01010163	          0.01010244	          0.01010210	          0.01010224	          0.01010278	          0.01010294	          0.01010298	          0.01010281	          0.01010377	          0.01010322	          0.01010211	          0.01010040	          0.01009372	          0.01010255	          0.01010070	          0.01010263	          0.01010206	          0.01010275	          0.01010264	          0.01010246	          0.01010188	          0.01010269	          0.01010248	
          1.87000000	        -28.16687943	          7.01733683	          0.97372773	         -2.61473641	         49.38849272	         -5.79342168	         69.60429659	         68.07636700	        -19.00874453	          0.01010089	          0.01010119	          0.01010177	          0.01010168	          0.01010240	          0.01010218	          0.01010289	          0.01010156	          0.01010167	          0.01010215	          0.01010164	          0.01010246	          0.01010211	          0.01010226	          0.01010277	          0.01010285	          0.01010284	          0.01010270	          0.01010341	          0.01010300	          0.01010207	          0.01010063	          0.01010065	          0.01010267	          0.01010089	          0.01010246	          0.01010201	          0.01010263	          0.01010248	          0.01010235	          0.01010185	          0.01010253	          0.01010246	
          1.88000000	        -28.37572285	          7.19018993	          0.90729329	         -2.54192186	         49.81392649	         -5.91589537	         69.50015192	         68.41528314	        -18.78553263	          0.01010128	          0.01010141	          0.01010218	          0.01010185	          0.01010250	          0.01010225	          0.01010269	          0.01010150	          0.01010150	          0.01010198	          0.01010165	          0.01010247	          0.01010212	          0.01010228	          0.01010274	          0.01010276	          0.01010272	          0.01010260	          0.01010312	          0.01010283	          0.01010198	          0.01010084	          0.01010124	          0.01010268	          0.01010116	          0.01010234	          0.01010196	          0.01010251	          0.01010235	          0.01010226	          0.01010181	          0.01010237	          0.01010244	
